<?xml version="1.0" encoding="utf-8"?>
<!-- Generator: Adobe Illustrator 19.2.1, SVG Export Plug-In . SVG Version: 6.00 Build 0)  -->
<svg version="1.1" id="Layer_1" xmlns="http://www.w3.org/2000/svg" xmlns:xlink="http://www.w3.org/1999/xlink" x="0px" y="0px"
	 viewBox="0 0 14 21" style="enable-background:new 0 0 14 21;" xml:space="preserve">
<style type="text/css">
	.st0{fill:none;stroke:#222222;stroke-miterlimit:10;}
	.st1{fill:#222222;}
</style>
<g>
	<g>
		<path class="st0" d="M0.3,1c0-0.6,0.4-1,1-1h11.4c0.6,0,1,0.4,1,1v19c0,0.5-0.4,1-1,1H1.3c-0.6,0-1-0.5-1-1V1z"/>
	</g>
	<path class="st1" d="M9,9.2c0-1.1-0.9-2-2-2c-1.1,0-2,0.9-2,2c0,0.7,0.4,1.4,1,1.7v2.9h2v-2.9C8.6,10.6,9,9.9,9,9.2z"/>
</g>
</svg>
