<?xml version="1.0" encoding="utf-8"?>
<!-- Generator: Adobe Illustrator 19.2.1, SVG Export Plug-In . SVG Version: 6.00 Build 0)  -->
<svg version="1.1" id="Layer_1" xmlns="http://www.w3.org/2000/svg" xmlns:xlink="http://www.w3.org/1999/xlink" x="0px" y="0px"
	 viewBox="0 0 18 15" style="enable-background:new 0 0 18 15;" xml:space="preserve">
<style type="text/css">
	.st0{fill:#FFFFFF;}
</style>
<path class="st0" d="M16.3,6.4c0,1.3,0,2.4,0,3.8c-1.9,0-3.7,0-5.7,0c0,1.7,0,3.3,0,4.9c-1.4,0-2.7,0-4.1,0c0-3.7,0-7.5,0-11.3
	c-0.9,0-1.8-0.4-2.4,0.4C3.6,5,4.2,5.6,4.9,6.1c-0.3,1.2-0.7,2.3-1,3.4c-1.9-0.2-3.5-2-3.8-3.7C-0.5,2.7,1.6,0,4.8,0
	C9-0.1,13.2,0,17.4,0C17.6,0,17.8,0,18,0c0,1.2,0,2.4,0,3.7c-2.4,0-4.9,0-7.3,0c0,0.9,0,1.7,0,2.6C12.5,6.4,14.4,6.4,16.3,6.4z"/>
</svg>
