<?xml version="1.0" encoding="utf-8"?>
<!-- Generator: Adobe Illustrator 19.2.1, SVG Export Plug-In . SVG Version: 6.00 Build 0)  -->
<svg version="1.1" id="Layer_1" xmlns="http://www.w3.org/2000/svg" xmlns:xlink="http://www.w3.org/1999/xlink" x="0px" y="0px"
	 viewBox="0 0 48 48" style="enable-background:new 0 0 48 48;" xml:space="preserve">
<style type="text/css">
	.st0{fill:none;stroke:#222222;stroke-width:2;stroke-miterlimit:10;}
	.st1{fill:none;stroke:#222222;stroke-miterlimit:10;}
	.st2{fill:none;stroke:#222222;stroke-width:3;stroke-miterlimit:10;}
	.st3{fill:none;stroke:#222222;stroke-width:2;stroke-linecap:round;stroke-linejoin:round;stroke-miterlimit:10;}
	.st4{fill:none;stroke:#222222;stroke-linecap:round;stroke-linejoin:round;stroke-miterlimit:10;}
	.st5{fill:none;stroke:#222222;stroke-linejoin:round;stroke-miterlimit:10;}
	.st6{fill:none;stroke:#FF4222;stroke-width:2;stroke-miterlimit:10;}
	.st7{fill:none;stroke:#FF4222;stroke-miterlimit:10;}
	.st8{fill:#7E7E7E;}
	.st9{fill:none;stroke:#7E7E7E;stroke-width:2;stroke-miterlimit:10;}
	.st10{fill:none;stroke:#222222;stroke-width:2;stroke-linecap:round;stroke-miterlimit:10;}
	.st11{fill:#222222;}
	.st12{fill:#FF4222;}
	.st13{fill:none;stroke:#FF4222;stroke-width:2;stroke-linecap:round;stroke-miterlimit:10;}
	.st14{fill:none;stroke:#FF4222;stroke-linecap:round;stroke-miterlimit:10;}
</style>
<path class="st8" d="M33.9,4.8c-0.9-2-2.5-3-4.6-3.2c-2.5-0.3-5.1,1.2-6.2,3.7c-0.8,1.8-1.7,3.6-2.5,5.3c-1.4,3-3.6,5.3-6.6,7.1v8.7
	c5,6.7,10,13.3,15,20.1c0.4-1,1-1.6,1.2-2.3c0.8-2.7,0-5.2-1.5-7.4c-3.3-4.7-6.6-9.4-9.9-14.2c-0.2-0.4-0.5-0.7-0.6-1
	c2-3.3,3.8-6.5,5.8-9.7c0.4,0.3,0.6,0.4,0.8,0.6c2.8,2.5,6.4,2.1,8.6-0.9C34.7,9.4,34.9,7.1,33.9,4.8z M28.2,11.3
	c-1.9,0-3.3-1.3-3.3-3.2c0-2.1,1.9-4,3.9-3.9c1.8,0,3.1,1.4,3.1,3.3C32,9.6,30.3,11.3,28.2,11.3z"/>
</svg>
