<?xml version="1.0" encoding="utf-8"?>
<!-- Generator: Adobe Illustrator 19.2.1, SVG Export Plug-In . SVG Version: 6.00 Build 0)  -->
<svg version="1.1" id="_x3F__x3F__x3F__x3F__1" xmlns="http://www.w3.org/2000/svg" xmlns:xlink="http://www.w3.org/1999/xlink"
	 x="0px" y="0px" viewBox="0 0 312.7 159" style="enable-background:new 0 0 312.7 159;" xml:space="preserve">
<style type="text/css">
	.st0{fill:#222222;}
	.st1{fill:#EF472C;}
	.st2{fill:#707070;}
</style>
<g>
	<g>
		<path class="st0" d="M184.8,82.6c0-1.7,0.3-3.4,1-5s1.6-3,2.9-4.2c1.2-1.2,2.6-2.1,4-2.7c1.5-0.6,3.1-0.9,4.8-0.9s3.4,0.3,4.8,0.9
			c1.5,0.6,2.9,1.5,4.1,2.7c1.3,1.2,2.2,2.6,2.9,4.2c0.6,1.5,1,3.2,1,5s-0.3,3.4-0.8,4.9s-1.4,2.8-2.5,4c-1.3,1.4-2.7,2.4-4.3,3.1
			s-3.3,1.1-5.2,1.1c-3.6,0-6.6-1.3-9-3.8C186,89.5,184.8,86.3,184.8,82.6L184.8,82.6z M187.4,82.7c0,3,1,5.6,3,7.6s4.4,3.1,7.3,3.1
			c2.8,0,5.2-1,7.2-3.1s2.9-4.6,2.9-7.7c0-2.8-1-5.3-3-7.3c-2-2.1-4.4-3.1-7.3-3.1c-1.2,0-2.3,0.2-3.3,0.6c-1.1,0.4-2,1-3,1.7
			c-1.2,1-2.1,2.2-2.8,3.7C187.7,79.7,187.4,81.2,187.4,82.7L187.4,82.7z M214.9,82.7c0,3,1,5.6,3,7.6c2,2.1,4.4,3.1,7.3,3.1
			c2.8,0,5.2-1,7.2-3.1s2.9-4.6,2.9-7.7c0-2.8-1-5.3-3-7.3c-2-2.1-4.4-3.1-7.3-3.1c-1.2,0-2.3,0.2-3.3,0.6c-1.1,0.4-2,1-3,1.7
			c-1.2,1-2.1,2.2-2.8,3.7C215.3,79.7,214.9,81.2,214.9,82.7L214.9,82.7z M212.4,82.6c0-1.7,0.3-3.4,1-5s1.6-3,2.9-4.2
			c1.2-1.2,2.6-2.1,4-2.7c1.5-0.6,3.1-0.9,4.8-0.9s3.4,0.3,4.8,0.9c1.5,0.6,2.8,1.5,4.1,2.7c1.3,1.2,2.2,2.6,2.9,4.2
			c0.6,1.5,1,3.2,1,5s-0.3,3.4-0.8,4.9s-1.4,2.8-2.5,4c-1.3,1.4-2.7,2.4-4.3,3.1s-3.3,1.1-5.2,1.1c-3.6,0-6.6-1.3-9-3.8
			C213.6,89.5,212.4,86.3,212.4,82.6L212.4,82.6z M240.5,95.3v-25h3.8l9.1,21.7l9.1-21.7h3.8v24.9h-2.5v-22l-9.2,22h-2.3l-9.2-22v22
			h-2.6V95.3z"/>
		<path class="st0" d="M86.5,82.7c0,3,1,5.6,3,7.6c2,2.1,4.4,3.1,7.3,3.1c2.8,0,5.2-1,7.2-3.1c1.6-1.7,2.5-3.6,2.8-5.9h2.5
			c-0.1,1.1-0.4,2.1-0.7,3.1c-0.5,1.5-1.4,2.8-2.5,4c-1.3,1.4-2.7,2.4-4.3,3.1s-3.3,1.1-5.2,1.1c-3.6,0-6.6-1.3-9-3.8
			c-2.2-2.3-3.5-5.2-3.6-8.5c-4.2,0-8.4,0-12.6,0v8.9h12.4v2.4h-15V69.8h14.8v2.4H71.3v8.7c4.2,0,8.5,0,12.7,0
			c0.1-1.1,0.4-2.3,0.9-3.3c0.7-1.6,1.6-3,2.9-4.2c1.2-1.2,2.6-2.1,4-2.7c1.5-0.6,3.1-0.9,4.8-0.9c1.7,0,3.4,0.3,4.8,0.9
			c1.5,0.6,2.9,1.5,4.1,2.7c1.3,1.2,2.2,2.6,2.9,4.2c0.5,1.1,0.8,2.3,0.9,3.5h-2.5c-0.3-2.2-1.3-4.2-2.9-5.9c-2-2.1-4.4-3.1-7.3-3.1
			c-1.2,0-2.3,0.2-3.3,0.6c-1.1,0.4-2.1,1-3,1.7c-1.2,1-2.1,2.2-2.8,3.7C86.8,79.7,86.5,81.2,86.5,82.7L86.5,82.7z M111.5,82.6
			c0-1.7,0.3-3.4,1-5s1.6-3,2.9-4.2c1.2-1.2,2.6-2.1,4-2.7c1.5-0.6,3.1-0.9,4.8-0.9c1.7,0,3.4,0.3,4.8,0.9c1.5,0.6,2.8,1.5,4.1,2.7
			c1.3,1.2,2.2,2.6,2.9,4.2c0.6,1.5,1,3.2,1,5s-0.3,3.4-0.8,4.9s-1.4,2.8-2.5,4c-1.3,1.4-2.7,2.4-4.3,3.1c-1.6,0.7-3.3,1.1-5.2,1.1
			c-3.6,0-6.6-1.3-9-3.8C112.7,89.5,111.5,86.3,111.5,82.6L111.5,82.6z M114.1,82.7c0,3,1,5.6,3,7.6c2,2.1,4.4,3.1,7.3,3.1
			c2.8,0,5.2-1,7.2-3.1s2.9-4.6,2.9-7.7c0-2.8-1-5.3-3-7.3c-2-2.1-4.4-3.1-7.3-3.1c-1.2,0-2.3,0.2-3.3,0.6c-1.1,0.4-2,1-3,1.7
			c-1.2,1-2.1,2.2-2.8,3.7C114.4,79.7,114.1,81.2,114.1,82.7L114.1,82.7z M46.3,69.8h7.1c2,0,3.6,0.2,4.9,0.6c1.3,0.4,2.5,1,3.5,1.9
			c1.4,1.2,2.5,2.7,3.3,4.4c0.8,1.7,1.2,3.6,1.2,5.6c0,2.2-0.4,4.2-1.3,6s-2.1,3.3-3.7,4.4c-1,0.7-2.2,1.3-3.4,1.6
			c-1.2,0.3-3.1,0.5-5.6,0.5h-6V69.8L46.3,69.8z M48.7,72.2v20.2h5.1c3.2,0,5.6-0.9,7.3-2.7c1.7-1.8,2.6-4.3,2.6-7.6
			c0-1.6-0.3-3.1-0.9-4.5c-0.6-1.4-1.4-2.5-2.5-3.5c-0.8-0.7-1.7-1.2-2.7-1.5c-1-0.3-2.5-0.5-4.4-0.5L48.7,72.2z"/>
		<path class="st1" d="M205,20.9L205,20.9L205,20.9L205,20.9L205,20.9h-43l0,0l0,0l0,0l0,0l0,0c-6.3,0-12.1,2.6-16.2,6.7
			c-4,4-6.5,9.5-6.7,15.5l0,0v0.2v74.8h43.5V43.3l0,0c0.1-6,2.6-11.4,6.6-15.3c4.1-4.1,9.7-6.6,15.8-6.6l0,0l0,0l0,0l0,0l0,0
			L205,20.9L205,20.9z M180.7,81v0.6l-0.1,0.6l-0.1,0.6l-0.1,0.6l-0.1,0.5l-0.1,0.5l-0.2,0.5l-0.2,0.5l-0.2,0.5l-0.2,0.5l-0.3,0.5
			l-0.3,0.5l-0.3,0.5l-0.3,0.4l-0.3,0.4l-0.4,0.4l-0.4,0.4l-0.4,0.4l-0.4,0.3l-0.4,0.3l-0.4,0.3l-0.4,0.3l-0.4,0.2l-0.4,0.2
			l-0.4,0.2l-0.5,0.2l-0.5,0.1l-0.5,0.1l-0.5,0.1l-0.5,0.1l-2.1,0.2l10.6,17.2h-3l-5.1-8.3h-0.1l-12-19.5h2.5h0.5h0.5l0.5-0.1
			l0.5-0.1l0.5-0.1l0.5-0.1l0.5-0.1l0.5-0.2l0.5-0.2l0.5-0.2l0.4-0.2l0.4-0.2l0.4-0.3l0.4-0.3l0.4-0.3l0.4-0.3l0.4-0.3l0.3-0.4
			l0.3-0.4l0.3-0.4l0.3-0.4l0.2-0.4l0.2-0.4l0.2-0.4l0.2-0.4l0.1-0.5l0.1-0.5l0.1-0.5l0.1-0.5l0.1-0.5v-0.5v-0.5v-0.3v-0.3v-0.3V71
			l-0.4-0.2l-0.5-0.2l-0.5-0.2l-0.5-0.2l-0.3-0.1L170,70l-0.3-0.1l-0.3-0.1H169h-0.4h-0.4h-0.4h-0.4h-0.5h-0.5h-0.5h-0.5h-0.5h-0.6
			h-0.6h-10.2v39.7v0.2h-2l-9-10.7v-0.2V58.9h17.2h0.5h0.5h0.5h0.4h0.4h0.4h0.4h0.4h0.4h0.4h0.3l0.3,0.1l0.3,0.1l0.3,0.1l0.3,0.1
			l0.8,0.2l0.3,0.1l0.3,0.1l0.3,0.1l0.3,0.1l0.3,0.1l0.3,0.1l0.3,0.1l0.3,0.1l0.2,0.1l0.2,0.1l0.2,0.1l0.2,0.1l0.2,0.1l0.2,0.1
			l0.2,0.2l0.2,0.2l0.3,0.2l0.3,0.2l0.3,0.2l0.3,0.2l0.3,0.3l0.3,0.3l0.3,0.3l0.2,0.3l0.2,0.3l0.2,0.3l7.1,12.1l0.1,0.4l0.1,0.4
			l0.1,0.4l0.1,0.4l0.1,0.4l0.1,0.4l0.1,0.4v0.4v0.4V80v0.4L180.7,81z"/>
		<polygon class="st1" points="167.9,90.1 168.1,90.1 168.7,90.1 169.2,90.1 169.7,90 170.2,89.9 170.7,89.8 171.2,89.6 171.7,89.5 
			172.2,89.3 172.6,89.1 173.1,88.9 173.5,88.6 173.9,88.4 174.3,88.1 174.7,87.8 175,87.4 175.4,87.1 175.7,86.7 176,86.4 
			176.3,86 176.6,85.6 176.8,85.2 177.1,84.7 177.3,84.3 177.4,83.9 177.6,83.4 177.7,82.9 177.8,82.4 177.9,81.9 177.9,81.4 
			178,80.9 178,80.4 178,80.1 178,79.8 178,79.5 177.9,79.2 177.9,78.9 177.9,78.6 177.8,78.3 177.8,78 177.7,77.7 177.6,77.4 
			177.6,77.2 177.5,76.9 177.4,76.6 177.3,76.3 177.2,76.1 177.1,75.8 176.9,75.3 176.6,74.8 176.3,74.3 176,73.8 175.7,73.4 
			175.6,73.3 175.6,73.3 175.5,73.9 175.4,74.4 175.3,75 175.2,75.5 175.1,76 174.9,76.6 174.7,77.1 174.5,77.6 174.3,78 174,78.5 
			173.7,79 173.4,79.4 173.1,79.9 172.8,80.3 172.4,80.7 172,81.1 171.7,81.5 171.3,81.9 170.9,82.2 170.5,82.5 170,82.7 169.6,83 
			169.2,83.2 168.7,83.4 168.3,83.5 167.8,83.7 167.3,83.8 166.8,83.9 166.3,84 164.2,84.2 		"/>
		<polygon class="st1" points="151.5,105.4 151.5,67.2 165.3,67.2 165.8,67.2 166.3,67.2 166.7,67.2 167.2,67.3 167.6,67.3 
			168,67.3 168.4,67.3 168.8,67.4 169.2,67.4 169.5,67.4 169.9,67.5 170.2,67.5 170.5,67.6 170.8,67.7 171.1,67.7 171.4,67.8 
			171.7,67.9 172,67.9 172.1,68 172.1,67.8 171.9,67.5 171.7,67 171.5,66.5 171.2,66 170.9,65.5 170.5,65.1 170.1,64.7 169.7,64.2 
			169.3,63.8 168.9,63.5 168.6,63.2 168.1,62.9 167.7,62.7 167.3,62.5 166.8,62.3 166.3,62.1 165.8,61.9 165.5,61.9 165.2,61.8 
			164.9,61.8 164.6,61.7 164.2,61.7 163.9,61.6 163.5,61.6 163.1,61.5 162.6,61.5 162.2,61.5 161.7,61.5 161.2,61.4 160.7,61.4 
			160.1,61.4 159.6,61.4 159,61.4 145.4,61.4 145.4,98.1 		"/>
	</g>
	<g>
		<path class="st2" d="M47.7,128.1c0.8,0,1.5,0.2,2.1,0.5v1.1c-0.5-0.4-1.2-0.6-1.9-0.6c-1.3,0-2.7,0.7-2.7,2.5
			c0,1.7,1.3,2.5,2.6,2.5c0.7,0,1.5-0.2,2-0.5v1.1c-0.6,0.3-1.3,0.5-2.2,0.5c-1.8,0-3.6-1.1-3.6-3.5C44.1,129.2,46,128.1,47.7,128.1
			z"/>
		<path class="st2" d="M56.2,128.1c2.6,0,3.5,2.1,3.1,4H54c0.1,1.4,1.4,2,2.8,2c0.8,0,1.6-0.2,2.2-0.5v1.1c-0.6,0.3-1.5,0.5-2.4,0.5
			c-2,0-3.7-1.1-3.7-3.5C52.9,129.3,54.6,128.1,56.2,128.1z M56.3,129.1c-1.1,0-2.2,0.7-2.3,2h4.4C58.5,130.4,58,129.1,56.3,129.1z"
			/>
		<path class="st2" d="M64.5,135v-5.7H62v-1h6.1v1h-2.5v5.7H64.5z"/>
		<path class="st2" d="M71.3,135v-6.7h1.1v2.4h2.1c1.6,0,2.6,0.9,2.6,2.2c0,1.2-1,2.2-2.6,2.2H71.3z M72.4,134h1.9
			c1,0,1.6-0.4,1.6-1.2c0-0.8-0.6-1.2-1.6-1.2h-1.9V134z"/>
		<path class="st2" d="M86,135v-6.7h1.1v4.9l4.1-4.9h1v6.7H91v-4.9l-4.1,4.9H86z"/>
		<path class="st2" d="M96.2,135v-6.7h1.1v2.8h3.9v-2.8h1.1v6.7h-1.1v-2.8h-3.9v2.8H96.2z"/>
		<path class="st2" d="M108,135v-5.7h-2.5v-1h6.1v1h-2.5v5.7H108z"/>
		<path class="st2" d="M117.5,128.1c2.6,0,3.5,2.1,3.1,4h-5.4c0.1,1.4,1.4,2,2.8,2c0.8,0,1.6-0.2,2.2-0.5v1.1
			c-0.6,0.3-1.5,0.5-2.4,0.5c-2,0-3.7-1.1-3.7-3.5C114.2,129.3,115.9,128.1,117.5,128.1z M117.6,129.1c-1.1,0-2.2,0.7-2.3,2h4.4
			C119.7,130.4,119.3,129.1,117.6,129.1z"/>
		<path class="st2" d="M127.9,128.1c1.9,0,3.4,1.5,3.4,3.5c0,2-1.4,3.5-3.4,3.5c-1.3,0-2.1-0.6-2.6-1.2v4.1h-1.1v-9.8h1v1.1
			C125.8,128.7,126.7,128.1,127.9,128.1z M127.8,129.1c-1.2,0-2.1,0.8-2.5,1.7v1.7c0.4,0.9,1.3,1.7,2.5,1.7c1.3,0,2.4-1,2.4-2.5
			C130.2,130.1,129.1,129.1,127.8,129.1z"/>
		<path class="st2" d="M134.9,135v-6.7h1.1v2.4h2.1c1.6,0,2.6,0.9,2.6,2.2c0,1.2-1,2.2-2.6,2.2H134.9z M136,134h1.9
			c1,0,1.6-0.4,1.6-1.2c0-0.8-0.6-1.2-1.6-1.2H136V134z"/>
		<path class="st2" d="M147,128.1c2.6,0,3.5,2.1,3.1,4h-5.4c0.1,1.4,1.4,2,2.8,2c0.8,0,1.6-0.2,2.2-0.5v1.1
			c-0.6,0.3-1.5,0.5-2.4,0.5c-2,0-3.7-1.1-3.7-3.5C143.6,129.3,145.4,128.1,147,128.1z M147,129.1c-1.1,0-2.2,0.7-2.3,2h4.4
			C149.2,130.4,148.7,129.1,147,129.1z"/>
		<path class="st2" d="M157.4,128.1c1.9,0,3.4,1.5,3.4,3.5c0,2-1.4,3.5-3.4,3.5c-1.3,0-2.1-0.6-2.6-1.2v4.1h-1.1v-9.8h1v1.1
			C155.3,128.7,156.1,128.1,157.4,128.1z M157.3,129.1c-1.2,0-2.1,0.8-2.5,1.7v1.7c0.4,0.9,1.3,1.7,2.5,1.7c1.3,0,2.4-1,2.4-2.5
			C159.6,130.1,158.6,129.1,157.3,129.1z"/>
		<path class="st2" d="M164.3,135v-6.7h1.1v2.8h3.9v-2.8h1.1v6.7h-1.1v-2.8h-3.9v2.8H164.3z"/>
		<path class="st2" d="M174.5,135v-6.7h1.1v2.4h2.1c1.6,0,2.6,0.9,2.6,2.2c0,1.2-1,2.2-2.6,2.2H174.5z M175.6,134h1.9
			c1,0,1.6-0.4,1.6-1.2c0-0.8-0.6-1.2-1.6-1.2h-1.9V134z M181.6,135v-6.7h1.1v6.7H181.6z"/>
		<path class="st2" d="M192.2,128.3l-2.5,3.3l2.6,3.5h-1.3l-2-2.7l-2,2.7h-1.3l2.6-3.5l-2.5-3.3h1.3l1.8,2.5l1.8-2.5H192.2z"/>
		<path class="st2" d="M204.2,128.1c0.8,0,1.5,0.2,2.1,0.5v1.1c-0.5-0.4-1.2-0.6-1.9-0.6c-1.3,0-2.7,0.7-2.7,2.5
			c0,1.7,1.3,2.5,2.6,2.5c0.7,0,1.5-0.2,2-0.5v1.1c-0.6,0.3-1.3,0.5-2.2,0.5c-1.8,0-3.6-1.1-3.6-3.5
			C200.5,129.2,202.4,128.1,204.2,128.1z"/>
		<path class="st2" d="M215.9,134.1c0.2,0,0.4,0,0.5-0.1v0.9c-0.3,0.1-0.6,0.2-0.8,0.2c-0.5,0-1-0.2-1.2-0.8
			c-0.7,0.6-1.5,0.9-2.6,0.9c-1.2,0-2.4-0.6-2.4-2c0-1.7,1.6-2.3,3-2.3c0.6,0,1.3,0.1,1.9,0.2v-0.2c0-1-0.7-1.7-1.9-1.7
			c-1,0-1.9,0.3-2.5,0.5v-1.1c0.5-0.2,1.5-0.4,2.6-0.4c1.8,0,2.9,1,2.9,2.9v2.6C215.4,134,215.6,134.1,215.9,134.1z M212,134.2
			c0.9,0,1.7-0.3,2.3-1V132c-0.5-0.1-1.2-0.2-1.7-0.2c-1,0-2,0.3-2,1.3C210.5,133.8,211.2,134.2,212,134.2z"/>
		<path class="st2" d="M219.5,135.1c-0.3,0-0.5,0-0.8-0.2v-0.9c0.2,0.1,0.3,0.1,0.4,0.1c1.2,0,1.6-2.3,1.7-5.9h4.9v6.7h-1.1v-5.7
			H222C221.7,132.8,221.3,135.1,219.5,135.1z"/>
		<path class="st2" d="M233,128.1c1.8,0,3.6,1.2,3.6,3.5c0,2.3-1.8,3.5-3.6,3.5c-1.8,0-3.6-1.2-3.6-3.5
			C229.4,129.3,231.1,128.1,233,128.1z M233,129.2c-1.4,0-2.5,0.9-2.5,2.5c0,1.6,1.1,2.5,2.5,2.5s2.5-0.9,2.5-2.5
			C235.4,130.1,234.3,129.2,233,129.2z"/>
		<path class="st2" d="M240.1,135v-6.7h1.1v2.8h3.9v-2.8h1.1v6.7h-1.1v-2.8h-3.9v2.8H240.1z"/>
		<path class="st2" d="M253.4,128.1c1.8,0,3.6,1.2,3.6,3.5c0,2.3-1.8,3.5-3.6,3.5c-1.8,0-3.6-1.2-3.6-3.5
			C249.8,129.3,251.6,128.1,253.4,128.1z M253.4,129.2c-1.4,0-2.5,0.9-2.5,2.5c0,1.6,1.1,2.5,2.5,2.5s2.5-0.9,2.5-2.5
			C255.9,130.1,254.8,129.2,253.4,129.2z"/>
		<path class="st2" d="M260.5,135v-6.7h3.7c1.2,0,2.1,0.6,2.1,1.8c0,0.7-0.4,1.3-0.9,1.5c0.5,0.2,1.1,0.7,1.1,1.6
			c0,1.1-0.7,1.9-2.2,1.9H260.5z M261.7,131.1h2.5c0.6,0,1.1-0.2,1.1-0.9c0-0.8-0.6-1-1.1-1h-2.5V131.1z M261.7,134h2.5
			c0.7,0,1.2-0.2,1.2-1c0-0.8-0.6-1-1.2-1h-2.6V134z"/>
	</g>
</g>
</svg>
