<?xml version="1.0" encoding="utf-8"?>
<!-- Generator: Adobe Illustrator 19.2.1, SVG Export Plug-In . SVG Version: 6.00 Build 0)  -->
<svg version="1.1" id="Layer_1" xmlns="http://www.w3.org/2000/svg" xmlns:xlink="http://www.w3.org/1999/xlink" x="0px" y="0px"
	 viewBox="0 0 48 48" style="enable-background:new 0 0 48 48;" xml:space="preserve">
<style type="text/css">
	.st0{fill:none;stroke:#222222;stroke-width:2;stroke-miterlimit:10;}
	.st1{fill:none;stroke:#222222;stroke-miterlimit:10;}
	.st2{fill:none;stroke:#222222;stroke-width:3;stroke-miterlimit:10;}
	.st3{fill:none;stroke:#222222;stroke-width:2;stroke-linecap:round;stroke-linejoin:round;stroke-miterlimit:10;}
	.st4{fill:none;stroke:#222222;stroke-linecap:round;stroke-linejoin:round;stroke-miterlimit:10;}
	.st5{fill:none;stroke:#222222;stroke-linejoin:round;stroke-miterlimit:10;}
	.st6{fill:none;stroke:#FF4222;stroke-width:2;stroke-miterlimit:10;}
	.st7{fill:none;stroke:#FF4222;stroke-miterlimit:10;}
	.st8{fill:#7E7E7E;}
	.st9{fill:none;stroke:#7E7E7E;stroke-width:2;stroke-miterlimit:10;}
	.st10{fill:none;stroke:#222222;stroke-width:2;stroke-linecap:round;stroke-miterlimit:10;}
	.st11{fill:#222222;}
	.st12{fill:#FF4222;}
	.st13{fill:none;stroke:#FF4222;stroke-width:2;stroke-linecap:round;stroke-miterlimit:10;}
	.st14{fill:none;stroke:#FF4222;stroke-linecap:round;stroke-miterlimit:10;}
</style>
<path class="st8" d="M9.3,46.2c-1.4-1.9-1.8-3.9-1.2-5.9c0.4-1.3,1-2.7,1.7-3.8c3.2-4.7,6.5-9.3,9.8-13.9c0.3-0.4,0.5-0.7,0.7-1
	c-1.9-3.2-3.7-6.3-5.6-9.6c-0.5,0.4-0.8,0.5-1,0.8c-2.1,1.8-5,1.9-7.2,0.2c-2.1-1.8-2.9-4.1-2.3-6.8c0.5-2.3,2-3.8,4.3-4.3
	c2.7-0.6,5.6,0.9,6.8,3.5C16,6.6,16.5,8,17,9.3c1.3,3.5,3.6,6.3,6.8,8.4c2.8-1.8,5.1-4.1,6.5-7.2c0.8-1.8,1.4-3.6,2.2-5.3
	c1.1-2.4,3.7-4,6.2-3.7c2.1,0.2,3.7,1.2,4.6,3.2c1,2.3,0.8,4.7-0.7,6.7c-2.1,3-5.8,3.4-8.6,0.9c-0.2-0.2-0.4-0.3-0.8-0.6
	c-1.9,3.2-3.8,6.4-5.8,9.7c0.2,0.3,0.4,0.6,0.6,1c3.3,4.7,6.7,9.4,10,14.2c1.6,2.2,2.4,4.7,1.6,7.4c-0.2,0.7-0.6,1.4-1,2.3
	c-5-6.8-9.8-13.4-14.8-20.2C19,32.9,14.2,39.5,9.3,46.2z M13.7,8.2c0-2-1.9-3.9-3.9-3.9c-1.8,0-3.1,1.4-3.1,3.3
	c0,2.2,1.6,3.9,3.7,3.9C12.3,11.4,13.7,10,13.7,8.2z M34.3,8.1c0,1.9,1.4,3.2,3.3,3.2c2.1,0,3.8-1.7,3.7-3.9c0-1.9-1.4-3.3-3.1-3.3
	C36.2,4.1,34.3,6,34.3,8.1z"/>
</svg>
