<?xml version="1.0" encoding="utf-8"?>
<!-- Generator: Adobe Illustrator 19.2.1, SVG Export Plug-In . SVG Version: 6.00 Build 0)  -->
<svg version="1.1" id="Layer_1" xmlns="http://www.w3.org/2000/svg" xmlns:xlink="http://www.w3.org/1999/xlink" x="0px" y="0px"
	 viewBox="0 0 23 23" style="enable-background:new 0 0 23 23;" xml:space="preserve">
<style type="text/css">
	.st0{fill:none;stroke:#222222;stroke-width:2;stroke-miterlimit:10;}
</style>
<title>dec_icn-26-bag_sm</title>
<path class="st0" d="M22,21.3c0.1,0.3-0.1,0.6-0.3,0.7c-0.1,0-0.1,0-0.2,0H1.6C1.3,22,1,21.7,1,21.4c0,0,0-0.1,0-0.1L2.8,9.1
	C3,8.3,3.7,7.7,4.5,7.7h14.1c0.8,0,1.5,0.6,1.6,1.4L22,21.3z"/>
<path class="st0" d="M7.7,11.5V4.8C7.7,2.7,9.4,1,11.5,1s3.8,1.7,3.8,3.8c0,0,0,6.6,0,6.6"/>
</svg>
