<?xml version="1.0" encoding="utf-8"?>
<!-- Generator: Adobe Illustrator 19.2.1, SVG Export Plug-In . SVG Version: 6.00 Build 0)  -->
<svg version="1.1" id="Layer_1" xmlns="http://www.w3.org/2000/svg" xmlns:xlink="http://www.w3.org/1999/xlink" x="0px" y="0px"
	 viewBox="0 0 48 48" style="enable-background:new 0 0 48 48;" xml:space="preserve">
<style type="text/css">
	.st0{fill:none;stroke:#222222;stroke-width:2;stroke-miterlimit:10;}
	.st1{fill:none;stroke:#222222;stroke-miterlimit:10;}
	.st2{fill:none;stroke:#222222;stroke-width:3;stroke-miterlimit:10;}
	.st3{fill:none;stroke:#222222;stroke-width:2;stroke-linecap:round;stroke-linejoin:round;stroke-miterlimit:10;}
	.st4{fill:none;stroke:#222222;stroke-linecap:round;stroke-linejoin:round;stroke-miterlimit:10;}
	.st5{fill:none;stroke:#222222;stroke-linejoin:round;stroke-miterlimit:10;}
	.st6{fill:none;stroke:#FF4222;stroke-width:2;stroke-miterlimit:10;}
	.st7{fill:none;stroke:#FF4222;stroke-miterlimit:10;}
	.st8{fill:#7E7E7E;}
	.st9{fill:none;stroke:#7E7E7E;stroke-width:2;stroke-miterlimit:10;}
	.st10{fill:none;stroke:#222222;stroke-width:2;stroke-linecap:round;stroke-miterlimit:10;}
	.st11{fill:#222222;}
	.st12{fill:#FF4222;}
	.st13{fill:none;stroke:#FF4222;stroke-width:2;stroke-linecap:round;stroke-miterlimit:10;}
	.st14{fill:none;stroke:#FF4222;stroke-linecap:round;stroke-miterlimit:10;}
</style>
<g>
	<line class="st1" x1="19.5" y1="30" x2="19.5" y2="26"/>
	<line class="st1" x1="22.5" y1="30" x2="22.5" y2="26"/>
	<line class="st1" x1="25.5" y1="30" x2="25.5" y2="26"/>
	<line class="st1" x1="28.5" y1="30" x2="28.5" y2="26"/>
	<path class="st0" d="M13.3,23.2l3.3,10.1c0.1,0.4,0.5,0.7,1,0.7h12.8c0.5,0,0.9-0.3,1-0.7l3.3-10.1c0.2-0.7-0.3-1.4-1-1.4H14.3
		C13.6,21.8,13.1,22.5,13.3,23.2z"/>
	<g>
		<line class="st1" x1="17.6" y1="21.8" x2="22.5" y2="16.4"/>
		<line class="st1" x1="30.4" y1="21.8" x2="25.5" y2="16.4"/>
	</g>
	<circle class="st0" cx="23.9" cy="15.5" r="1.5"/>
</g>
</svg>
