<?xml version="1.0" encoding="utf-8"?>
<!-- Generator: Adobe Illustrator 19.2.1, SVG Export Plug-In . SVG Version: 6.00 Build 0)  -->
<svg version="1.1" id="Layer_1" xmlns="http://www.w3.org/2000/svg" xmlns:xlink="http://www.w3.org/1999/xlink" x="0px" y="0px"
	 viewBox="0 0 48 48" style="enable-background:new 0 0 48 48;" xml:space="preserve">
<style type="text/css">
	.st0{fill:none;stroke:#222222;stroke-width:2;stroke-miterlimit:10;}
	.st1{fill:none;stroke:#222222;stroke-miterlimit:10;}
	.st2{fill:none;stroke:#222222;stroke-width:3;stroke-miterlimit:10;}
	.st3{fill:none;stroke:#222222;stroke-width:2;stroke-linecap:round;stroke-linejoin:round;stroke-miterlimit:10;}
	.st4{fill:none;stroke:#222222;stroke-linecap:round;stroke-linejoin:round;stroke-miterlimit:10;}
	.st5{fill:none;stroke:#222222;stroke-linejoin:round;stroke-miterlimit:10;}
	.st6{fill:none;stroke:#FF4222;stroke-width:2;stroke-miterlimit:10;}
	.st7{fill:none;stroke:#FF4222;stroke-miterlimit:10;}
	.st8{fill:#7E7E7E;}
	.st9{fill:none;stroke:#7E7E7E;stroke-width:2;stroke-miterlimit:10;}
	.st10{fill:none;stroke:#222222;stroke-width:2;stroke-linecap:round;stroke-miterlimit:10;}
	.st11{fill:#222222;}
	.st12{fill:#FF4222;}
	.st13{fill:none;stroke:#FF4222;stroke-width:2;stroke-linecap:round;stroke-miterlimit:10;}
	.st14{fill:none;stroke:#FF4222;stroke-linecap:round;stroke-miterlimit:10;}
</style>
<g>
	<g>
		<line class="st1" x1="16.5" y1="37" x2="16.5" y2="26"/>
		<line class="st1" x1="21.5" y1="37" x2="21.5" y2="26"/>
		<line class="st1" x1="26.5" y1="37" x2="26.5" y2="26"/>
		<line class="st1" x1="31.5" y1="37" x2="31.5" y2="26"/>
	</g>
	<path class="st0" d="M3.5,22.5l6.3,19.4c0.3,0.8,1,1.4,1.9,1.4h24.6c0.9,0,1.7-0.6,1.9-1.4l6.3-19.4c0.4-1.3-0.6-2.6-1.9-2.6H5.4
		C4.1,19.8,3.1,21.2,3.5,22.5z"/>
	<g>
		<line class="st1" x1="11.6" y1="19.8" x2="21.2" y2="9.4"/>
		<line class="st1" x1="36.4" y1="19.8" x2="26.8" y2="9.4"/>
	</g>
	<circle class="st0" cx="24" cy="7.8" r="3"/>
</g>
</svg>
