<?xml version="1.0" encoding="utf-8"?>
<!-- Generator: Adobe Illustrator 19.2.1, SVG Export Plug-In . SVG Version: 6.00 Build 0)  -->
<svg version="1.1" id="Layer_1" xmlns="http://www.w3.org/2000/svg" xmlns:xlink="http://www.w3.org/1999/xlink" x="0px" y="0px"
	 viewBox="0 0 62 14" style="enable-background:new 0 0 62 14;" xml:space="preserve">
<style type="text/css">
	.st0{fill:#4C4C4C;}
</style>
<g>
	<path class="st0" d="M27,4c1.8,0,3.2,1.5,3,3.3c-0.2,1.4-1.3,2.5-2.6,2.6C25.5,10.2,24,8.8,24,7C24,5.3,25.3,4,27,4 M27,2
		c-2.8,0-5.1,2.3-5,5.2c0.1,2.6,2.2,4.7,4.8,4.8c2.9,0.1,5.2-2.2,5.2-5C32,4.2,29.8,2,27,2L27,2z"/>
	<path class="st0" d="M40.6,8.5L40.6,8.5c-0.6,1-1.8,1.7-3.1,1.5C36.2,9.8,35,8.4,35,7c0,0,0,0,0,0l0,0c0-0.5-0.4-1-1-1h0
		c-0.5,0-1,0.4-1,1l0,0c0,0.7,0.2,1.5,0.5,2.3c0.6,1.2,1.6,2.1,2.8,2.5c1.8,0.6,3.4,0.2,4.7-0.7v0c0,0.6,0.4,1,1,1h0
		c0.6,0,1-0.4,1-1V9c0-0.6-0.4-1-1-1h-0.5C41.5,8,40.9,8,40.6,8.5z"/>
	<path class="st0" d="M20.4,9.4C20.8,8.6,21,7.7,21,6.7c-0.1-2.6-2.2-4.6-4.8-4.7C13.3,1.9,11,4.2,11,7v4c0,0.6,0.4,1,1,1h0
		c0.6,0,1-0.4,1-1l0-3.9c0-1.5,1.2-2.9,2.8-3.1C17.5,3.9,19,5.3,19,7c0,1-0.5,1.9-1.3,2.5l2.2,2.2c0.4,0.4,1,0.4,1.4,0l0,0
		c0.4-0.4,0.4-1,0-1.4L20.4,9.4z"/>
	<path class="st0" d="M10,6.8C9.9,4.2,7.8,2.1,5.3,2C5.2,2,5,2,5,2l0,0C4.4,2,4,2.4,4,3l0,0c0,0.5,0.4,1,1,1l0,0c0.2,0,0.4,0,0.5,0
		C6.8,4.3,7.9,5.4,8,6.7C8.2,8.5,6.8,10,5,10c-1.7,0-3-1.3-3-3l0,0h0c0-0.6-0.4-1-1-1h0C0.4,6,0,6.4,0,7v6c0,0.6,0.4,1,1,1h0
		c0.6,0,1-0.4,1-1v-2c0.8,0.6,1.9,1,3,1C7.8,12,10.1,9.7,10,6.8z"/>
	<path class="st0" d="M52,7.2c0.1,2.6,2.2,4.7,4.7,4.8c0.1,0,0.3,0,0.3,0h0c0.6,0,1-0.4,1-1v0c0-0.5-0.4-1-1-1c0,0,0,0,0,0
		c-0.2,0-0.4,0-0.5,0c-1.3-0.2-2.3-1.3-2.4-2.6C53.8,5.5,55.2,4,57,4c1.7,0,3,1.3,3,3l0,0h0c0,0.6,0.4,1,1,1h0c0.6,0,1-0.4,1-1V1
		c0-0.6-0.4-1-1-1h0c-0.6,0-1,0.4-1,1v2c-0.8-0.6-1.9-1-3-1C54.2,2,51.9,4.3,52,7.2z"/>
	<path class="st0" d="M43.4,5.5L43.4,5.5c0.6-1,1.8-1.7,3.1-1.5C47.8,4.2,49,5.6,49,7c0,0,0,0,0,0l0,0c0,0.5,0.4,1,1,1h0
		c0.5,0,1-0.4,1-1l0,0c0-0.7-0.2-1.5-0.5-2.3c-0.6-1.2-1.6-2.1-2.8-2.5C45.9,1.7,44.2,2.1,43,3v0c0-0.6-0.4-1-1-1h0
		c-0.6,0-1,0.4-1,1v2c0,0.6,0.4,1,1,1h0.5C42.5,6,43.1,6,43.4,5.5z"/>
</g>
</svg>
