<svg id="Layer_1" data-name="Layer 1" xmlns="http://www.w3.org/2000/svg" viewBox="0 0 578.98 143.92"><defs><style>.cls-1{fill:#e94f4d;}.cls-2{fill:#1c1c1c;}</style></defs><title>Pround_black_det</title><g id="Pround_black_det"><g id="Pround_black"><path class="cls-1" d="M522.36,361.65a4.77,4.77,0,0,1,1.57.39,4.84,4.84,0,0,1,1.57,1.08,5.62,5.62,0,0,1,1.2,1.87,8.4,8.4,0,0,1,0,5.58,5.58,5.58,0,0,1-1.22,1.87,4.64,4.64,0,0,1-1.58,1,4.46,4.46,0,0,1-1.58.33H512.18a13,13,0,0,1-2.88-.41,8.13,8.13,0,0,1-2.56-1.14,6.36,6.36,0,0,1-1.85-1.91,5,5,0,0,1-.71-2.68h4.18a1.21,1.21,0,0,0,.59,1.06,4.27,4.27,0,0,0,1.3.58,13.32,13.32,0,0,0,1.93.31h10q0.77-.08.77-1.85a4.1,4.1,0,0,0-.1-1,1.91,1.91,0,0,0-.24-0.6,0.8,0.8,0,0,0-.26-0.27,0.48,0.48,0,0,0-.16-0.06h-10a11.55,11.55,0,0,1-2.88-.37,8.38,8.38,0,0,1-2.56-1.12,6.14,6.14,0,0,1-1.85-1.89,5,5,0,0,1-.71-2.72,4.88,4.88,0,0,1,.87-2.92,6.53,6.53,0,0,1,2.21-1.95,9.35,9.35,0,0,1-1.58-2.74,9.48,9.48,0,0,1,.16-6.88,9.44,9.44,0,0,1,5-5,9,9,0,0,1,3.63-.73h10.68v4.18h-2.84a9.9,9.9,0,0,1,1.14,2.46,9.27,9.27,0,0,1,.41,2.74,9.11,9.11,0,0,1-.69,3.53,9.22,9.22,0,0,1-4.68,4.91,9.49,9.49,0,0,1-3.46.89h-5a4,4,0,0,0-1.16.57,1.1,1.1,0,0,0-.51.93,1.17,1.17,0,0,0,.59,1.06,5.27,5.27,0,0,0,1.28.57,9.43,9.43,0,0,0,1.91.28h10.21Zm-7.91-17.94a5.09,5.09,0,0,0-2,.41,5,5,0,0,0-1.64,1.12,5.39,5.39,0,0,0-1.1,1.66,5.17,5.17,0,0,0,6.78,6.76,5.44,5.44,0,0,0,1.64-1.1,5,5,0,0,0,1.12-1.64,5.17,5.17,0,0,0,0-4,5.23,5.23,0,0,0-1.12-1.66,5.3,5.3,0,0,0-1.64-1.12A5,5,0,0,0,514.46,343.7Z" transform="translate(-67.67 -231.45)"/><path class="cls-2" d="M545.18,341.07a8.87,8.87,0,0,1,2.35,2.25l-2.35,1.87-0.89.73a5.1,5.1,0,0,0-1.81-1.62,5.09,5.09,0,0,0-4.4-.2,5.15,5.15,0,0,0-2.72,2.72,4.93,4.93,0,0,0-.41,2v12.27h-4.18V339.51h4.18v1.56a9.26,9.26,0,0,1,2.4-1.15,9.21,9.21,0,0,1,5.44,0A9.27,9.27,0,0,1,545.18,341.07Z" transform="translate(-67.67 -231.45)"/><path class="cls-2" d="M560.12,339.5a10.62,10.62,0,0,1,4.21.84,10.77,10.77,0,0,1,5.74,5.74,11,11,0,0,1,0,8.42,10.77,10.77,0,0,1-5.74,5.74,11,11,0,0,1-8.42,0,10.77,10.77,0,0,1-5.74-5.74,11,11,0,0,1,0-8.42,10.78,10.78,0,0,1,5.74-5.74A10.61,10.61,0,0,1,560.12,339.5Zm0,17.37a6.42,6.42,0,0,0,2.55-.51,6.59,6.59,0,0,0,0-12.14,6.61,6.61,0,0,0-5.09,0,6.55,6.55,0,0,0-2.1,1.41,6.84,6.84,0,0,0-1.43,2.1,6.42,6.42,0,0,0,0,5.11,6.84,6.84,0,0,0,1.43,2.1,6.53,6.53,0,0,0,2.1,1.41A6.42,6.42,0,0,0,560.14,356.86Z" transform="translate(-67.67 -231.45)"/><path class="cls-2" d="M593.15,339.5v12.28a9,9,0,0,1-1.13,4.47,9.21,9.21,0,0,1-3.05,3.29,10,10,0,0,1-2.43,1.14,9.25,9.25,0,0,1-5.42,0,10,10,0,0,1-2.43-1.14,9.53,9.53,0,0,1-3-3.29,8.92,8.92,0,0,1-1.15-4.47V339.5h4.18v12.28a5,5,0,0,0,.4,2,5.21,5.21,0,0,0,1.09,1.62,5.11,5.11,0,0,0,1.64,1.1,5,5,0,0,0,2,.41,4.89,4.89,0,0,0,2-.41,5.43,5.43,0,0,0,1.64-1.1,5,5,0,0,0,1.11-1.62,5,5,0,0,0,.4-2V339.5h4.18Z" transform="translate(-67.67 -231.45)"/><path class="cls-2" d="M607.53,339.5a10.34,10.34,0,0,1,4.19.85,11,11,0,0,1,5.74,5.74,10.7,10.7,0,0,1,0,8.38,11,11,0,0,1-5.74,5.74,10.34,10.34,0,0,1-4.19.85,10.23,10.23,0,0,1-3.54-.61,11.44,11.44,0,0,1-3.05-1.67v16.58h-4.19V350.28a10.55,10.55,0,0,1,.83-4.19,10.75,10.75,0,0,1,2.3-3.42,11,11,0,0,1,3.44-2.32A10.48,10.48,0,0,1,607.53,339.5Zm0,17.37a6.24,6.24,0,0,0,2.54-.53,6.76,6.76,0,0,0,3.52-3.52,6.38,6.38,0,0,0,0-5.09,6.76,6.76,0,0,0-3.52-3.52,6.24,6.24,0,0,0-2.54-.53,6.34,6.34,0,0,0-2.58.53,6.81,6.81,0,0,0-2.1,1.42,6.53,6.53,0,0,0-1.4,2.1,6.44,6.44,0,0,0-.51,2.54v0a6.23,6.23,0,0,0,.53,2.54,6.81,6.81,0,0,0,1.42,2.1,6.53,6.53,0,0,0,2.1,1.4A6.44,6.44,0,0,0,607.53,356.87Z" transform="translate(-67.67 -231.45)"/><path class="cls-2" d="M393.67,259.77A21.26,21.26,0,1,1,372.41,281a21.28,21.28,0,0,1,21.26-21.26m0-14.17A35.43,35.43,0,1,0,429.1,281a35.43,35.43,0,0,0-35.43-35.43h0Z" transform="translate(-67.67 -231.45)"/><path class="cls-2" d="M493.36,291.69v0a21.18,21.18,0,0,1-21.58,10.37c-9.61-1.43-17.82-11-18-20.69q0-.11,0-0.21V252.6a7,7,0,0,0-7-7h0a7,7,0,0,0-7,7v28.6a37,37,0,0,0,3.73,15.94,33.22,33.22,0,0,0,19.77,17.39,35.7,35.7,0,0,0,33-5.15h0a7.06,7.06,0,0,0,7.06,7.06h0a7.06,7.06,0,0,0,7.06-7.06V295.29a7.06,7.06,0,0,0-7.06-7.06h-3.77A7,7,0,0,0,493.36,291.69Z" transform="translate(-67.67 -231.45)"/><path class="cls-2" d="M343.28,297.93A35.43,35.43,0,1,0,276.71,281v28.35a7.09,7.09,0,0,0,7.09,7.09h0a7.09,7.09,0,0,0,7.09-7.09V281.47c0-10.85,8.81-20.83,19.63-21.64A21.26,21.26,0,0,1,324,298.67l15.69,15.72a7.08,7.08,0,0,0,10,0h0a7.08,7.08,0,0,0,0-10Z" transform="translate(-67.67 -231.45)"/><path class="cls-2" d="M266.06,279.68a35.56,35.56,0,0,0-33.49-34c-0.64,0-1.92,0-1.92,0h0a7.08,7.08,0,0,0-7.09,7.08v0.07a7,7,0,0,0,7,7h0.06a21.57,21.57,0,0,1,3.84.35A21.26,21.26,0,1,1,209.4,281h0a7.08,7.08,0,0,0-7.08-7.08h0a7.09,7.09,0,0,0-7.09,7.09v42.53a7.08,7.08,0,0,0,7.08,7.08h0a7.09,7.09,0,0,0,7.09-7.09V309.36A35.43,35.43,0,0,0,266.06,279.68Z" transform="translate(-67.67 -231.45)"/><path class="cls-2" d="M575.83,282.41a35.56,35.56,0,0,0,33.49,34c0.64,0,1.92,0,1.92,0h0a7.08,7.08,0,0,0,7.09-7.08v-0.07a7,7,0,0,0-7-7h0a21.63,21.63,0,0,1-3.86-.35,21.26,21.26,0,1,1,25.09-20.91h0a7.08,7.08,0,0,0,7.08,7.08h0a7.09,7.09,0,0,0,7.09-7.09V238.53a7.08,7.08,0,0,0-7.08-7.08h0a7.09,7.09,0,0,0-7.09,7.09v14.19A35.43,35.43,0,0,0,575.83,282.41Z" transform="translate(-67.67 -231.45)"/><path class="cls-2" d="M511.34,270.44v0A21.26,21.26,0,0,1,533,260c9.64,1.44,17.89,11,18,20.76,0,0.07,0,28.5,0,28.57v0.09a7,7,0,0,0,7,7h0a7,7,0,0,0,7-7.05V280.95a37.09,37.09,0,0,0-3.75-16,33.34,33.34,0,0,0-19.85-17.46,35.83,35.83,0,0,0-33.08,5.17h0a7.08,7.08,0,0,0-7.08-7.08h0a7.08,7.08,0,0,0-7.08,7.08v14.17a7.08,7.08,0,0,0,7.08,7.08h3.78A7.06,7.06,0,0,0,511.34,270.44Z" transform="translate(-67.67 -231.45)"/><rect class="cls-2" x="260.23" y="113.52" width="148.82" height="10.63"/></g><circle class="cls-2" cx="60.24" cy="49.58" r="10.63"/><circle class="cls-2" cx="10.63" cy="49.58" r="10.63"/></g></svg>